<?xml version="1.0" encoding="utf-8"?>
<!-- Generator: Adobe Illustrator 19.0.0, SVG Export Plug-In . SVG Version: 6.00 Build 0)  -->
<svg version="1.1" xmlns="http://www.w3.org/2000/svg" xmlns:xlink="http://www.w3.org/1999/xlink" x="0px" y="0px"
	 viewBox="0 0 1000 1000" style="enable-background:new 0 0 1000 1000;" xml:space="preserve">
<style type="text/css">
	.st0{display:none;}
	.st1{display:inline;fill:#222222;}
	.st2{fill:#FFFFFF;}
	.st3{fill:#222222;}
	.st4{fill:none;stroke:#222222;stroke-width:25;stroke-linecap:round;stroke-miterlimit:10;}
	.st5{fill:#3FA9F5;}
</style>
<g id="圖層_1" class="st0">
	<rect id="XMLID_1_" class="st1" width="1000" height="1000"/>
</g>
<g id="圖層_2">
	<g id="XMLID_2_">
		<path id="XMLID_5_" class="st2" d="M942.1,521.4c0,244.2-197.9,442.1-442.1,442.1S57.9,765.6,57.9,521.4"/>
		<circle id="XMLID_3_" class="st2" cx="500" cy="521.4" r="442.1"/>
		<path id="XMLID_4_" class="st2" d="M110.4,41.2L500,266.2L57.9,521.4V71.5C57.9,44.6,87.1,27.8,110.4,41.2z"/>
		<path id="XMLID_7_" class="st2" d="M889.6,41.2L500,266.2l442.1,255.2V71.5C942.1,44.6,912.9,27.8,889.6,41.2z"/>
	</g>
	<circle id="XMLID_6_" class="st3" cx="302" cy="266.5" r="50"/>
	<circle id="XMLID_9_" class="st3" cx="698" cy="266.5" r="50"/>
	<path id="XMLID_8_" class="st3" d="M500,508.9"/>
	<g id="XMLID_10_">
		<path id="XMLID_11_" class="st3" d="M546.8,286.7l-35.1,60.8c-5.2,9-18.2,9-23.4,0l-35.1-60.8c-5.2-9,1.3-20.3,11.7-20.3h70.2
			C545.5,266.5,552,277.7,546.8,286.7z"/>
		<g id="XMLID_12_">
			<path id="XMLID_13_" class="st4" d="M353.1,329.4c0,40.6,32.9,73.4,73.4,73.4S500,370,500,329.4"/>
			<path id="XMLID_14_" class="st4" d="M500,329.4c0,40.6,32.9,73.4,73.4,73.4s73.4-32.9,73.4-73.4"/>
		</g>
	</g>
	<g id="XMLID_15_">
		<path id="XMLID_17_" class="st5" d="M500,449.4h-99c0,0-24.4-39.3-113.7,0c0,0-39.6,19-44.6,28.6c-4.9,9.6-5.6,17-5.6,17
			s-21.2,14.9-28,30.8c-6.7,15.9-29.1,78.4-29.1,78.4L139.4,733c0,0-52.1,160.9,12.4,214.5S264,902.8,264,902.8s65-99.9,98.5-99.9
			s137.6,0,137.6,0"/>
		<path id="XMLID_16_" class="st5" d="M500,449.4h99c0,0,24.4-39.3,113.7,0c0,0,39.6,19,44.6,28.6s5.6,17,5.6,17s21.2,14.9,28,30.8
			c6.7,15.9,29.1,78.4,29.1,78.4L860.6,733c0,0,52.1,160.9-12.4,214.5S736,902.8,736,902.8s-65-99.9-98.5-99.9
			c-33.4,0-137.6,0-137.6,0"/>
	</g>
</g>
</svg>
